<mxfile host="app.diagrams.net" modified="2024-05-11T09:44:43.611Z" agent="Mozilla/5.0 (X11; Linux x86_64) AppleWebKit/537.36 (KHTML, like Gecko) Chrome/123.0.0.0 Safari/537.36" etag="5Xt3ozh7zHYhIrIAkDQL" version="24.3.1" type="device">
  <diagram name="Сторінка-1" id="FdSk3e9vek4YP72eNfuM">
    <mxGraphModel dx="2925" dy="1168" grid="1" gridSize="10" guides="1" tooltips="1" connect="1" arrows="1" fold="1" page="1" pageScale="1" pageWidth="827" pageHeight="1169" math="0" shadow="0">
      <root>
        <mxCell id="0" />
        <mxCell id="1" parent="0" />
        <mxCell id="WFoVU5ZHkEedH_ld-UlM-64" value="" style="rounded=0;whiteSpace=wrap;html=1;strokeColor=none;fillColor=#14171C;" vertex="1" parent="1">
          <mxGeometry x="-50" y="60" width="1090" height="680" as="geometry" />
        </mxCell>
        <mxCell id="WFoVU5ZHkEedH_ld-UlM-1" value="Evaluator (Component)" style="swimlane;whiteSpace=wrap;html=1;fillColor=#60a917;strokeColor=#2D7600;fontColor=#ffffff;" vertex="1" parent="1">
          <mxGeometry x="150" y="100" width="700" height="620" as="geometry" />
        </mxCell>
        <mxCell id="WFoVU5ZHkEedH_ld-UlM-54" style="edgeStyle=orthogonalEdgeStyle;rounded=0;orthogonalLoop=1;jettySize=auto;html=1;exitX=0;exitY=0.5;exitDx=0;exitDy=0;entryX=1;entryY=0.5;entryDx=0;entryDy=0;dashed=1;strokeColor=#FFFFFF;" edge="1" parent="WFoVU5ZHkEedH_ld-UlM-1" source="WFoVU5ZHkEedH_ld-UlM-2" target="WFoVU5ZHkEedH_ld-UlM-35">
          <mxGeometry relative="1" as="geometry" />
        </mxCell>
        <mxCell id="WFoVU5ZHkEedH_ld-UlM-23" style="edgeStyle=orthogonalEdgeStyle;rounded=0;orthogonalLoop=1;jettySize=auto;html=1;exitX=1;exitY=0.5;exitDx=0;exitDy=0;strokeColor=#FFFFFF;" edge="1" parent="WFoVU5ZHkEedH_ld-UlM-1" source="WFoVU5ZHkEedH_ld-UlM-15" target="WFoVU5ZHkEedH_ld-UlM-17">
          <mxGeometry relative="1" as="geometry" />
        </mxCell>
        <mxCell id="WFoVU5ZHkEedH_ld-UlM-26" style="edgeStyle=orthogonalEdgeStyle;rounded=0;orthogonalLoop=1;jettySize=auto;html=1;exitX=1;exitY=0.5;exitDx=0;exitDy=0;entryX=0;entryY=0.5;entryDx=0;entryDy=0;strokeColor=#FFFFFF;" edge="1" parent="WFoVU5ZHkEedH_ld-UlM-1" source="WFoVU5ZHkEedH_ld-UlM-17">
          <mxGeometry relative="1" as="geometry">
            <mxPoint x="220" y="130" as="targetPoint" />
          </mxGeometry>
        </mxCell>
        <mxCell id="WFoVU5ZHkEedH_ld-UlM-45" style="edgeStyle=orthogonalEdgeStyle;rounded=0;orthogonalLoop=1;jettySize=auto;html=1;exitX=1;exitY=0.5;exitDx=0;exitDy=0;entryX=0;entryY=0.25;entryDx=0;entryDy=0;dashed=1;strokeColor=#FFFFFF;" edge="1" parent="WFoVU5ZHkEedH_ld-UlM-1" source="WFoVU5ZHkEedH_ld-UlM-28" target="WFoVU5ZHkEedH_ld-UlM-2">
          <mxGeometry relative="1" as="geometry">
            <Array as="points">
              <mxPoint x="510" y="270" />
              <mxPoint x="510" y="358" />
            </Array>
          </mxGeometry>
        </mxCell>
        <mxCell id="WFoVU5ZHkEedH_ld-UlM-52" style="edgeStyle=orthogonalEdgeStyle;rounded=0;orthogonalLoop=1;jettySize=auto;html=1;exitX=1;exitY=0.5;exitDx=0;exitDy=0;entryX=0;entryY=0.75;entryDx=0;entryDy=0;dashed=1;endArrow=none;endFill=0;strokeColor=#FFFFFF;" edge="1" parent="WFoVU5ZHkEedH_ld-UlM-1" source="WFoVU5ZHkEedH_ld-UlM-47" target="WFoVU5ZHkEedH_ld-UlM-2">
          <mxGeometry relative="1" as="geometry">
            <Array as="points">
              <mxPoint x="510" y="550" />
              <mxPoint x="510" y="463" />
            </Array>
          </mxGeometry>
        </mxCell>
        <mxCell id="WFoVU5ZHkEedH_ld-UlM-20" value="Start" style="rhombus;whiteSpace=wrap;html=1;fillColor=#008a00;fontColor=#ffffff;strokeColor=#005700;" vertex="1" parent="WFoVU5ZHkEedH_ld-UlM-1">
          <mxGeometry x="-190" y="90" width="80" height="80" as="geometry" />
        </mxCell>
        <mxCell id="WFoVU5ZHkEedH_ld-UlM-25" value="Input &lt;br&gt;(Dict[str, Any])" style="ellipse;whiteSpace=wrap;html=1;fillColor=#C73500;fontColor=#FCFCFC;strokeColor=#C73500;" vertex="1" parent="WFoVU5ZHkEedH_ld-UlM-1">
          <mxGeometry x="-125" y="50" width="90" height="60" as="geometry" />
        </mxCell>
        <mxCell id="WFoVU5ZHkEedH_ld-UlM-21" style="edgeStyle=orthogonalEdgeStyle;rounded=0;orthogonalLoop=1;jettySize=auto;html=1;exitX=1;exitY=0.5;exitDx=0;exitDy=0;strokeColor=#F7F7F7;" edge="1" parent="WFoVU5ZHkEedH_ld-UlM-1" source="WFoVU5ZHkEedH_ld-UlM-20" target="WFoVU5ZHkEedH_ld-UlM-15">
          <mxGeometry relative="1" as="geometry" />
        </mxCell>
        <mxCell id="WFoVU5ZHkEedH_ld-UlM-15" value="run" style="shape=process;whiteSpace=wrap;html=1;backgroundOutline=1;strokeColor=#FFFFFF;fillColor=#14171C;fontColor=#FCFCFC;" vertex="1" parent="WFoVU5ZHkEedH_ld-UlM-1">
          <mxGeometry x="-40" y="115" width="80" height="30" as="geometry" />
        </mxCell>
        <mxCell id="WFoVU5ZHkEedH_ld-UlM-24" value="Transformable" style="ellipse;whiteSpace=wrap;html=1;fillColor=#C73500;fontColor=#F0F0F0;strokeColor=#C73500;gradientColor=none;" vertex="1" parent="WFoVU5ZHkEedH_ld-UlM-1">
          <mxGeometry x="20" y="70" width="90" height="40" as="geometry" />
        </mxCell>
        <mxCell id="WFoVU5ZHkEedH_ld-UlM-6" value="ExecutionSchema (Component)" style="swimlane;whiteSpace=wrap;html=1;fillColor=#1ba1e2;fontColor=#ffffff;strokeColor=#006EAF;" vertex="1" parent="WFoVU5ZHkEedH_ld-UlM-1">
          <mxGeometry x="130" y="40" width="400" height="570" as="geometry" />
        </mxCell>
        <mxCell id="WFoVU5ZHkEedH_ld-UlM-30" style="edgeStyle=orthogonalEdgeStyle;rounded=0;orthogonalLoop=1;jettySize=auto;html=1;exitX=1;exitY=0.5;exitDx=0;exitDy=0;entryX=0;entryY=0.5;entryDx=0;entryDy=0;strokeColor=#FFFFFF;" edge="1" parent="WFoVU5ZHkEedH_ld-UlM-6" source="WFoVU5ZHkEedH_ld-UlM-9">
          <mxGeometry relative="1" as="geometry">
            <mxPoint x="90" y="230" as="targetPoint" />
            <Array as="points">
              <mxPoint x="290" y="90" />
              <mxPoint x="290" y="160" />
              <mxPoint x="70" y="160" />
              <mxPoint x="70" y="230" />
            </Array>
          </mxGeometry>
        </mxCell>
        <mxCell id="WFoVU5ZHkEedH_ld-UlM-9" value="Component" style="swimlane;whiteSpace=wrap;html=1;fillColor=#d80073;fontColor=#ffffff;strokeColor=#A50040;" vertex="1" parent="WFoVU5ZHkEedH_ld-UlM-6">
          <mxGeometry x="130" y="40" width="140" height="100" as="geometry" />
        </mxCell>
        <mxCell id="WFoVU5ZHkEedH_ld-UlM-66" value="__call__" style="shape=process;whiteSpace=wrap;html=1;backgroundOutline=1;fillColor=#14171C;strokeColor=#FFFFFF;fontColor=#FFFFFF;" vertex="1" parent="WFoVU5ZHkEedH_ld-UlM-9">
          <mxGeometry x="-40" y="35" width="80" height="30" as="geometry" />
        </mxCell>
        <mxCell id="WFoVU5ZHkEedH_ld-UlM-44" style="edgeStyle=orthogonalEdgeStyle;rounded=0;orthogonalLoop=1;jettySize=auto;html=1;exitX=1;exitY=0.75;exitDx=0;exitDy=0;entryX=0;entryY=0.5;entryDx=0;entryDy=0;strokeColor=#FFFFFF;" edge="1" parent="WFoVU5ZHkEedH_ld-UlM-6" source="WFoVU5ZHkEedH_ld-UlM-28">
          <mxGeometry relative="1" as="geometry">
            <mxPoint x="90" y="370" as="targetPoint" />
            <Array as="points">
              <mxPoint x="290" y="255" />
              <mxPoint x="290" y="300" />
              <mxPoint x="70" y="300" />
              <mxPoint x="70" y="370" />
            </Array>
          </mxGeometry>
        </mxCell>
        <mxCell id="WFoVU5ZHkEedH_ld-UlM-28" value="SetMemory" style="swimlane;whiteSpace=wrap;html=1;fillColor=#6a00ff;fontColor=#ffffff;strokeColor=#3700CC;" vertex="1" parent="WFoVU5ZHkEedH_ld-UlM-6">
          <mxGeometry x="130" y="180" width="140" height="100" as="geometry" />
        </mxCell>
        <mxCell id="WFoVU5ZHkEedH_ld-UlM-67" value="__call__" style="shape=process;whiteSpace=wrap;html=1;backgroundOutline=1;fillColor=#14171C;strokeColor=#FFFFFF;fontColor=#FFFFFF;" vertex="1" parent="WFoVU5ZHkEedH_ld-UlM-28">
          <mxGeometry x="-40" y="35" width="80" height="30" as="geometry" />
        </mxCell>
        <mxCell id="WFoVU5ZHkEedH_ld-UlM-50" style="edgeStyle=orthogonalEdgeStyle;rounded=0;orthogonalLoop=1;jettySize=auto;html=1;exitX=1;exitY=0.75;exitDx=0;exitDy=0;entryX=0;entryY=0.5;entryDx=0;entryDy=0;strokeColor=#FFFFFF;" edge="1" parent="WFoVU5ZHkEedH_ld-UlM-6" source="WFoVU5ZHkEedH_ld-UlM-35">
          <mxGeometry relative="1" as="geometry">
            <mxPoint x="90" y="510" as="targetPoint" />
            <Array as="points">
              <mxPoint x="290" y="395" />
              <mxPoint x="290" y="440" />
              <mxPoint x="70" y="440" />
              <mxPoint x="70" y="510" />
            </Array>
          </mxGeometry>
        </mxCell>
        <mxCell id="WFoVU5ZHkEedH_ld-UlM-35" value="GetMemory" style="swimlane;whiteSpace=wrap;html=1;fillColor=#e51400;fontColor=#ffffff;strokeColor=#B20000;" vertex="1" parent="WFoVU5ZHkEedH_ld-UlM-6">
          <mxGeometry x="130" y="320" width="140" height="100" as="geometry" />
        </mxCell>
        <mxCell id="WFoVU5ZHkEedH_ld-UlM-41" value="Dict[str, Any]" style="ellipse;whiteSpace=wrap;html=1;fontColor=#FFFFFF;fillColor=#C73500;strokeColor=#C73500;" vertex="1" parent="WFoVU5ZHkEedH_ld-UlM-6">
          <mxGeometry x="280" y="180" width="90" height="40" as="geometry" />
        </mxCell>
        <mxCell id="WFoVU5ZHkEedH_ld-UlM-58" value="Transformable" style="ellipse;whiteSpace=wrap;html=1;fillColor=#C73500;fontColor=#F0F0F0;strokeColor=#C73500;gradientColor=none;" vertex="1" parent="WFoVU5ZHkEedH_ld-UlM-6">
          <mxGeometry x="24" y="30" width="90" height="40" as="geometry" />
        </mxCell>
        <mxCell id="WFoVU5ZHkEedH_ld-UlM-59" value="Transformable" style="ellipse;whiteSpace=wrap;html=1;fillColor=#C73500;fontColor=#F0F0F0;strokeColor=#C73500;gradientColor=none;" vertex="1" parent="WFoVU5ZHkEedH_ld-UlM-6">
          <mxGeometry x="24" y="110" width="90" height="40" as="geometry" />
        </mxCell>
        <mxCell id="WFoVU5ZHkEedH_ld-UlM-60" value="Transformable" style="ellipse;whiteSpace=wrap;html=1;fillColor=#C73500;fontColor=#F0F0F0;strokeColor=#C73500;gradientColor=none;" vertex="1" parent="WFoVU5ZHkEedH_ld-UlM-6">
          <mxGeometry x="24" y="250" width="90" height="40" as="geometry" />
        </mxCell>
        <mxCell id="WFoVU5ZHkEedH_ld-UlM-61" value="Transformable" style="ellipse;whiteSpace=wrap;html=1;fillColor=#C73500;fontColor=#F0F0F0;strokeColor=#C73500;gradientColor=none;" vertex="1" parent="WFoVU5ZHkEedH_ld-UlM-6">
          <mxGeometry x="24" y="390" width="90" height="40" as="geometry" />
        </mxCell>
        <mxCell id="WFoVU5ZHkEedH_ld-UlM-62" value="Dict[str, Any]" style="ellipse;whiteSpace=wrap;html=1;fontColor=#FFFFFF;fillColor=#C73500;strokeColor=#C73500;" vertex="1" parent="WFoVU5ZHkEedH_ld-UlM-6">
          <mxGeometry x="280" y="320" width="90" height="40" as="geometry" />
        </mxCell>
        <mxCell id="WFoVU5ZHkEedH_ld-UlM-68" value="__call__" style="shape=process;whiteSpace=wrap;html=1;backgroundOutline=1;fillColor=#14171C;strokeColor=#FFFFFF;fontColor=#FFFFFF;" vertex="1" parent="WFoVU5ZHkEedH_ld-UlM-6">
          <mxGeometry x="90" y="355" width="80" height="30" as="geometry" />
        </mxCell>
        <mxCell id="WFoVU5ZHkEedH_ld-UlM-47" value="DeleteMemory" style="swimlane;whiteSpace=wrap;html=1;fillColor=#76608a;fontColor=#ffffff;strokeColor=#432D57;" vertex="1" parent="WFoVU5ZHkEedH_ld-UlM-6">
          <mxGeometry x="130" y="460" width="140" height="100" as="geometry" />
        </mxCell>
        <mxCell id="WFoVU5ZHkEedH_ld-UlM-69" value="__call__" style="shape=process;whiteSpace=wrap;html=1;backgroundOutline=1;fillColor=#14171C;strokeColor=#FFFFFF;fontColor=#FFFFFF;" vertex="1" parent="WFoVU5ZHkEedH_ld-UlM-6">
          <mxGeometry x="90" y="495" width="80" height="30" as="geometry" />
        </mxCell>
        <mxCell id="WFoVU5ZHkEedH_ld-UlM-2" value="MemoryMangager" style="swimlane;whiteSpace=wrap;html=1;fillColor=#0050ef;fontColor=#ffffff;strokeColor=#001DBC;" vertex="1" parent="WFoVU5ZHkEedH_ld-UlM-1">
          <mxGeometry x="550" y="305" width="140" height="210" as="geometry" />
        </mxCell>
        <mxCell id="WFoVU5ZHkEedH_ld-UlM-4" value="Memory" style="rounded=1;whiteSpace=wrap;html=1;fillColor=#647687;fontColor=#ffffff;strokeColor=#314354;" vertex="1" parent="WFoVU5ZHkEedH_ld-UlM-2">
          <mxGeometry x="10" y="30" width="120" height="170" as="geometry" />
        </mxCell>
        <mxCell id="WFoVU5ZHkEedH_ld-UlM-17" value="__call__" style="shape=process;whiteSpace=wrap;html=1;backgroundOutline=1;fillColor=#14171C;strokeColor=#FFFFFF;fontColor=#FFFFFF;" vertex="1" parent="WFoVU5ZHkEedH_ld-UlM-1">
          <mxGeometry x="90" y="115" width="80" height="30" as="geometry" />
        </mxCell>
        <mxCell id="WFoVU5ZHkEedH_ld-UlM-72" style="edgeStyle=orthogonalEdgeStyle;rounded=0;orthogonalLoop=1;jettySize=auto;html=1;strokeColor=#FFFFFF;" edge="1" parent="1" target="WFoVU5ZHkEedH_ld-UlM-71">
          <mxGeometry relative="1" as="geometry">
            <mxPoint x="550" y="670" as="sourcePoint" />
            <Array as="points">
              <mxPoint x="550" y="670" />
            </Array>
          </mxGeometry>
        </mxCell>
        <mxCell id="WFoVU5ZHkEedH_ld-UlM-63" value="Output &lt;br&gt;(Dict[str, Any])" style="ellipse;whiteSpace=wrap;html=1;fillColor=#C73500;fontColor=#FCFCFC;strokeColor=#C73500;" vertex="1" parent="1">
          <mxGeometry x="860" y="600" width="90" height="60" as="geometry" />
        </mxCell>
        <mxCell id="WFoVU5ZHkEedH_ld-UlM-71" value="End" style="rhombus;whiteSpace=wrap;html=1;fillColor=#e51400;fontColor=#ffffff;strokeColor=#B20000;" vertex="1" parent="1">
          <mxGeometry x="940" y="630" width="80" height="80" as="geometry" />
        </mxCell>
      </root>
    </mxGraphModel>
  </diagram>
</mxfile>
